<svg xmlns="http://www.w3.org/2000/svg" viewBox="0 0 288.06 218.49">
  <defs>
    <style>
      .cls-1 {
        fill: #6d675c;
      }

      .cls-2 {
        fill: #3f4444;
      }

      .cls-3 {
        fill: #8dcec8;
      }

      .cls-4 {
        fill: #464c4c;
      }

      .cls-5 {
        fill: #f2bd46;
      }

      .cls-6 {
        fill: #383a3a;
      }

      .cls-7 {
        fill: #8e630d;
      }

      .cls-8 {
        fill: #fff;
      }

      .cls-8, .cls-9 {
        opacity: 0.2;
      }

      .cls-9 {
        fill: #353433;
      }

      .cls-10 {
        fill: #494845;
      }

      .cls-11 {
        fill: none;
        stroke: #494845;
        stroke-miterlimit: 10;
        stroke-width: 5px;
      }
    </style>
  </defs>
  <g id="Laag_3" data-name="Laag 3">
    <g>
      <path class="cls-1" d="M277,251.89c.15,10.38-16.15,10.38-16,0C260.85,241.51,277.15,241.51,277,251.89Z" transform="translate(-152.68 -243.1)"/>
      <path class="cls-2" d="M269,260.68a9.88,9.88,0,0,1-4.94-1.3,8.94,8.94,0,0,1,0-15,10.05,10.05,0,0,1,9.88,0,8.94,8.94,0,0,1,0,15A9.88,9.88,0,0,1,269,260.68Zm0-15.57a7.81,7.81,0,0,0-3.93,1,6.94,6.94,0,0,0,0,11.52,8.08,8.08,0,0,0,7.86,0A6.22,6.22,0,0,0,276,251.9v0a6.22,6.22,0,0,0-3.07-5.75A7.81,7.81,0,0,0,269,245.11Z" transform="translate(-152.68 -243.1)"/>
    </g>
    <g>
      <path class="cls-1" d="M326,259.73a8.06,8.06,0,0,1-5.08-1.8l-7.5,21.64,6.58,2.32,6.86-22.21A8.11,8.11,0,0,1,326,259.73Z" transform="translate(-152.68 -243.1)"/>
      <path class="cls-2" d="M320.65,283.18l-8.5-3,8.29-23.93,1.11.9a7.1,7.1,0,0,0,5.2,1.54l1.51-.16Zm-6-4.22,4.66,1.64,6.14-19.89a9,9,0,0,1-4.05-1.22Z" transform="translate(-152.68 -243.1)"/>
    </g>
    <g>
      <path class="cls-1" d="M334,251.89c.15,10.38-16.15,10.38-16,0C317.85,241.51,334.15,241.51,334,251.89Z" transform="translate(-152.68 -243.1)"/>
      <path class="cls-2" d="M326,260.68a9.88,9.88,0,0,1-4.94-1.3,8.94,8.94,0,0,1,0-15,10.05,10.05,0,0,1,9.88,0,8.94,8.94,0,0,1,0,15A9.88,9.88,0,0,1,326,260.68Zm0-15.57a7.81,7.81,0,0,0-3.93,1,6.94,6.94,0,0,0,0,11.52,8.08,8.08,0,0,0,7.86,0A6.22,6.22,0,0,0,333,251.9v0a6.22,6.22,0,0,0-3.07-5.75A7.81,7.81,0,0,0,326,245.11Z" transform="translate(-152.68 -243.1)"/>
    </g>
    <g>
      <path class="cls-1" d="M281.87,279.57,274.38,258a8,8,0,0,1-5.95,1.71l6.86,22.22Z" transform="translate(-152.68 -243.1)"/>
      <path class="cls-2" d="M274.64,283.18,267,258.49l1.53.19a7,7,0,0,0,5.2-1.5l1.11-.9,8.28,23.9Zm-4.84-22.46,6.14,19.88L280.6,279l-6.74-19.44A9.2,9.2,0,0,1,269.8,260.72Z" transform="translate(-152.68 -243.1)"/>
    </g>
  </g>
  <g id="Laag_14" data-name="Laag 14">
    <g>
      <path class="cls-3" d="M425.64,389.67c-19.78,12.76-44.56,31.61-62.71,4.91-13-19.14-27.43-41.74-2.57-58.89,19.78-12.76,44.56-31.61,62.71-4.91C436,349.92,450.5,372.53,425.64,389.67Z" transform="translate(-152.68 -243.1)"/>
      <path class="cls-4" d="M385.19,409.66c-8.34,0-16.4-3.8-23.5-14.24-12.17-18-28.82-42.59-2.18-61,1.31-.84,2.59-1.69,3.9-2.54,19.2-12.56,43.09-28.19,60.9-2,12.17,18,28.82,42.59,2.18,61l0,0c-1.27.81-2.55,1.66-3.86,2.51C411,401,397.79,409.66,385.19,409.66Zm15.43-90.91c-11.61,0-24.05,8.14-35.57,15.68L361.18,337c-22.34,15.41-11.86,34.84,3,56.79,16.16,23.77,37.74,9.65,56.78-2.81l3.86-2.51c22.34-15.43,11.87-34.85-3-56.8C415.44,322.23,408.21,318.75,400.62,318.75Z" transform="translate(-152.68 -243.1)"/>
    </g>
    <g>
      <path class="cls-3" d="M167.78,389.67c19.78,12.76,44.56,31.61,62.71,4.91,12.95-19.14,27.43-41.74,2.57-58.89-19.78-12.76-44.56-31.61-62.71-4.91C157.39,349.92,142.92,372.53,167.78,389.67Z" transform="translate(-152.68 -243.1)"/>
      <path class="cls-4" d="M208.23,409.66c-12.61,0-25.85-8.66-37.4-16.22L167,390.93l0,0c-26.64-18.37-10-43,2.18-61,17.82-26.21,41.7-10.58,60.9,2,1.31.85,2.59,1.7,3.86,2.51,26.68,18.4,10,43-2.14,61C224.63,405.86,216.57,409.66,208.23,409.66Zm-39.62-21.24,3.86,2.51c19,12.46,40.62,26.58,56.78,2.81,14.85-21.95,25.33-41.38,3-56.81l-3.84-2.5c-19-12.46-40.62-26.58-56.78-2.81C156.74,353.57,146.27,373,168.61,388.42Z" transform="translate(-152.68 -243.1)"/>
    </g>
  </g>
  <g id="Laag_2" data-name="Laag 2">
    <g>
      <path class="cls-5" d="M317.77,458.89c-45.76,2.92-97.85-.93-100.93-58.34,6.72-56.08-2.28-129.51,80.8-129,55.84,1.08,73.84,37.08,76.75,79.85C380.81,403.42,386,452.68,317.77,458.89Z" transform="translate(-152.68 -243.1)"/>
      <path class="cls-6" d="M297.73,461.6c-23.49,0-48.23-3.48-64.46-17.91-11.23-10-17.43-24.47-18.43-43v-.18l0-.17c1-8.28,1.66-17.16,2.3-25.75,1.9-25.33,3.86-51.52,14.36-71.44,11.92-22.59,33.29-33.59,65.3-33.59h.84c26.5.51,46.6,8.93,59.76,25,10.94,13.37,17.32,32.42,19,56.64,4,32.75,8.21,66.61-9.12,88.1-10,12.41-26.14,19.47-49.31,21.58h-.06C311.45,461.3,304.64,461.6,297.73,461.6Zm-78.88-61c1,17.38,6.71,30.87,17.08,40.09,19.9,17.69,54.1,17.95,81.68,16.2,22-2,37.24-8.59,46.53-20.11,16.28-20.18,12.2-53.21,8.26-85.15v-.11c-3.5-51.58-28-77.09-74.79-78h-.81c-68.07,0-71.92,51.51-75.65,101.33C220.5,383.43,219.84,392.29,218.85,400.61Z" transform="translate(-152.68 -243.1)"/>
    </g>
    <g>
      <path class="cls-7" d="M221.26,353.17c4,10.76,115.9,28.28,153.13-1.6l2.72,32.13c5.57,8.54-115.8,29.56-158.72.35Z" transform="translate(-152.68 -243.1)"/>
      <path class="cls-6" d="M290.46,400.52c-24.06,0-54.67-2.82-72.91-15.23l-.74-.5,3.57-38.35,2.29,6.21c.1.27,1.31,2.71,13.49,6.08,33.85,9.39,108.67,14.64,137.29-8.33l2.19-1.77,2.94,34.65a2.87,2.87,0,0,1-.89,3.3c-5.59,5.47-37,11.61-68.59,13.4C303.73,400.29,297.36,400.52,290.46,400.52ZM220,383.3c32.73,21.35,113.29,14.74,145.9,5.24,7.62-2.21,9.44-3.78,9.84-4.24l-.07-.1-2.52-29.81c-30.85,21.7-104.21,16.54-137.76,7.23-7.05-1.95-10.83-3.69-12.9-5.07Z" transform="translate(-152.68 -243.1)"/>
    </g>
    <g>
      <path class="cls-7" d="M217.2,396.82c4.51,9.23,105.5,32.37,161,0,1.28,31.56-4.1,38.88-80.44,44.56,0,0-65.63-1.77-77.16-20.43C220.62,421,215.34,408,217.2,396.82Z" transform="translate(-152.68 -243.1)"/>
      <path class="cls-6" d="M296.73,443l0-.12c-10.42-.38-66.32-3.25-77.34-21.11l-.12-.22c-.22-.54-5.42-13.43-3.51-24.94l.77-4.62,2.06,4.21c.47.95,4,3.39,14.11,6.46,33.73,10.23,102.88,17.35,144.8-7.1l2.15-1.25.1,2.49c1.34,32.86-5.57,40.44-81.82,46.11ZM222,420.27c11,17.35,72.52,19.5,75.78,19.6,75.07-5.58,79.93-13.21,79.06-40.53-42.92,23.46-111.38,16.35-145,6.15-6.3-1.91-10.79-3.76-13.42-5.52C217.81,409.32,221.52,419.11,222,420.27Z" transform="translate(-152.68 -243.1)"/>
    </g>
  </g>
  <g id="Laag_8" data-name="Laag 8">
    <path class="cls-8" d="M298.74,276a2.27,2.27,0,0,0-1-4.29h-.09c-43.69,0-71.7,19.86-75.74,79.21l-4.55,49.55c0,.08.65.18.65.26C218,401.78,251.71,300.37,298.74,276Z" transform="translate(-152.68 -243.1)"/>
  </g>
  <g id="Laag_7" data-name="Laag 7">
    <path class="cls-9" d="M373.89,351.57c-1.8-29.78-12-50.91-22.87-59.85a1.84,1.84,0,0,0-3,1.59c5,52.59-3.63,131.48-92.77,157.55a1.84,1.84,0,0,0-.16,3.48,62.19,62.19,0,0,0,22.47,4.16h40.15c32.87.24,60.45-25.32,60.45-55.93,0-.05-.12-2.57-.13-2.62S373.89,351.6,373.89,351.57Z" transform="translate(-152.68 -243.1)"/>
  </g>
  <g id="Laag_4" data-name="Laag 4">
    <rect class="cls-10" x="158.61" y="54.27" width="14.71" height="18.19" rx="7.35"/>
    <rect class="cls-10" x="116.93" y="54.27" width="14.71" height="18.19" rx="7.35"/>
  </g>
  <g id="Laag_5" data-name="Laag 5">
    <path class="cls-11" d="M313.42,332.6c-17.23,13.16-31.55,0-31.55,0" transform="translate(-152.68 -243.1)"/>
  </g>
</svg>
